<mxfile host="app.diagrams.net" modified="2024-02-22T19:15:53.849Z" agent="Mozilla/5.0 (Macintosh; Intel Mac OS X 10_15_7) AppleWebKit/537.36 (KHTML, like Gecko) Chrome/121.0.0.0 Safari/537.36" version="23.0.2" etag="XNMb_Ux6_j9sz5LPLgNx" type="github">
  <diagram name="Page-1" id="XuMyA3n85vBbPbcQY1oD">
    <mxGraphModel>
      <root>
        <mxCell id="0" />
        <mxCell id="1" parent="0" />
      </root>
    </mxGraphModel>
  </diagram>
</mxfile>
